<?xml version="1.0" encoding="iso-8859-1"?>
<!-- Generator: Adobe Illustrator 19.0.0, SVG Export Plug-In . SVG Version: 6.00 Build 0)  -->
<svg version="1.1" id="Layer_1" xmlns="http://www.w3.org/2000/svg" xmlns:xlink="http://www.w3.org/1999/xlink" x="0px" y="0px"
	 viewBox="0 0 297 297" style="enable-background:new 0 0 297 297;" xml:space="preserve">
<g>
	<g>
		<g>
			<path d="M291.419,57.627L150.78,15.006c-1.49-0.452-3.068-0.451-4.56,0L5.581,57.627C0.403,59.197,0,63.781,0,65.149
				c0,1.367,0.403,5.952,5.581,7.521l68.331,20.708l71.893-29.716c3.613-1.486,7.744,0.232,9.233,3.843
				c1.489,3.611-0.232,7.744-3.843,9.233l-56.003,23.09l51.028,15.464h-0.001c1.494,0.452,3.071,0.452,4.561,0L291.42,72.67
				c5.177-1.569,5.58-6.154,5.58-7.521C297,63.781,296.598,59.196,291.419,57.627z"/>
			<path d="M70.372,107.083L42.379,98.6v53.955c0,2.403,1.22,4.642,3.24,5.943c8.371,5.397,16.635,9.971,24.753,13.826V107.083z"/>
			<path d="M148.499,129.774c-2.147,0-4.293-0.316-6.38-0.948h-0.001L84.515,111.37v67.019c23.395,8.975,45.302,12.19,64.668,12.19
				c15.721,0,29.769-2.115,41.578-4.978c37.042-8.978,60.16-26.71,61.126-27.46c1.724-1.34,2.734-3.402,2.734-5.585V98.6
				l-99.74,30.226C152.793,129.458,150.646,129.774,148.499,129.774z"/>
			<path d="M70.371,209.97L70.371,209.97c2.229-0.728,4.604-1.127,7.072-1.127s4.843,0.399,7.071,1.127v-31.582
				c-4.658-1.787-9.375-3.799-14.143-6.063V209.97z"/>
			<path d="M64.731,231.658c0,7.009,5.703,12.712,12.713,12.712c7.01,0,12.713-5.702,12.713-12.712
				c0-7.01-5.703-12.713-12.713-12.713C70.434,218.945,64.731,224.648,64.731,231.658z"/>
			<path d="M96.926,243.519c-4.011,6.564-11.243,10.954-19.482,10.954c-8.239,0-15.471-4.39-19.482-10.954l-9.835,29.506
				c-0.719,2.157-0.357,4.527,0.972,6.371s3.464,2.937,5.737,2.937h45.218c2.273,0,4.408-1.093,5.737-2.937
				c1.329-1.844,1.691-4.214,0.972-6.371L96.926,243.519z"/>
		</g>
	</g>
</g>
<g>
</g>
<g>
</g>
<g>
</g>
<g>
</g>
<g>
</g>
<g>
</g>
<g>
</g>
<g>
</g>
<g>
</g>
<g>
</g>
<g>
</g>
<g>
</g>
<g>
</g>
<g>
</g>
<g>
</g>
</svg>
